<svg width="30" height="30" viewBox="0 0 30 30" fill="none" xmlns="http://www.w3.org/2000/svg">
<path d="M28 7.69275C26.625 5.38961 24.875 3.47033 22.5 2.06286C20.25 0.655385 17.75 0.015625 15 0.015625C12.25 0.015625 9.75 0.655385 7.5 2.06286C5.125 3.47033 3.375 5.26166 2 7.69275C0.625 9.99589 0 12.5549 0 15.3699C0 18.6966 1 21.7675 2.875 24.4545C4.75 27.1415 7.25 28.9328 10.25 29.9564C10.625 30.0844 10.875 29.9564 11 29.8285C11.25 29.7005 11.25 29.4446 11.25 29.1887C11.25 29.1887 11.25 28.8048 11.25 28.1651C11.25 27.5253 11.25 26.8856 11.25 26.3738L10.75 26.5017C10.5 26.5017 10.125 26.6297 9.625 26.6297C9.25 26.6297 8.75 26.6297 8.25 26.5017C7.75 26.3738 7.375 26.2458 7 25.8619C6.625 25.606 6.25 25.0942 6.125 24.5824L5.875 24.0706C5.75 23.8147 5.5 23.4309 5.25 23.047C5 22.6631 4.625 22.4072 4.375 22.2793L4.25 22.1513C4.125 22.0234 4.125 22.0234 4 21.8954C3.875 21.7675 3.875 21.7675 3.875 21.6395C3.875 21.5116 3.875 21.5116 4 21.3836C4.125 21.3836 4.25 21.2557 4.625 21.2557H5C5.25 21.2557 5.625 21.5116 6 21.7675C6.375 22.0234 6.75 22.4072 7 22.7911C7.25 23.3029 7.625 23.8147 8.125 24.0706C8.5 24.3265 9 24.4545 9.375 24.4545C9.75 24.4545 10.125 24.4545 10.5 24.3265C10.75 24.4545 11 24.3265 11.25 24.1986C11.375 23.3029 11.625 22.6631 12.25 22.1513C11.5 22.0234 10.875 21.8954 10.25 21.7675C9.625 21.6395 9 21.3836 8.375 20.9998C7.75 20.6159 7.25 20.2321 6.75 19.7202C6.375 19.2084 6 18.4407 5.75 17.673C5.5 16.7773 5.375 15.7537 5.375 14.7301C5.375 13.0667 5.875 11.7872 6.875 10.6356C6.5 9.22817 6.5 7.8207 7.125 6.41323C7.5 6.28528 8 6.28528 8.75 6.66913C9.5 6.92504 10 7.18094 10.375 7.43685C10.75 7.5648 11 7.8207 11.25 7.94865C12.5 7.5648 13.75 7.43685 15 7.43685C16.25 7.43685 17.5 7.5648 18.75 7.94865L19.5 7.43685C20 7.18094 20.625 6.79708 21.25 6.54118C22 6.28528 22.5 6.15732 22.875 6.28528C23.5 7.8207 23.5 9.10022 23 10.3797C24 11.5313 24.5 12.9388 24.5 14.4742C24.5 15.6258 24.375 16.6494 24.125 17.5451C23.875 18.4407 23.5 19.0805 23.125 19.5923C22.75 20.1041 22.125 20.6159 21.5 20.8718C20.875 21.2557 20.25 21.5116 19.625 21.6395C19 21.7675 18.375 21.8954 17.625 22.0234C18.25 22.6631 18.625 23.5588 18.625 24.8383V29.0607C18.625 29.3167 18.75 29.4446 18.875 29.7005C19 29.8285 19.25 29.9564 19.625 29.8285C22.625 28.8048 25.125 27.0135 27 24.3265C29 21.7675 30 18.6966 30 15.3699C30 12.5549 29.375 9.99589 28 7.69275Z" fill="black"/>
</svg>
