<svg width="20" height="24" viewBox="0 0 20 24" fill="none" xmlns="http://www.w3.org/2000/svg">
<path fill-rule="evenodd" clip-rule="evenodd" d="M2.6875 10.5C2.6875 6.46142 5.96142 3.1875 10 3.1875C14.0386 3.1875 17.3125 6.46142 17.3125 10.5C17.3125 13.2965 16.1521 14.9427 14.7817 16.2224C14.2039 16.7619 13.634 17.197 13.0281 17.6597L13.0279 17.6598C12.8488 17.7965 12.6665 17.9357 12.4799 18.0807C12.1019 18.3744 11.6803 18.7139 11.308 19.0817C10.944 19.4412 10.5056 19.9438 10.2128 20.5976C10.1622 20.7108 10.1009 20.7724 10.0701 20.795C10.0573 20.8043 10.0508 20.8066 10.0486 20.8073L10.0485 20.8073C10.047 20.8079 10.0335 20.8125 10 20.8125C9.96647 20.8125 9.95299 20.8079 9.95148 20.8073L9.95138 20.8073C9.94925 20.8066 9.94266 20.8043 9.92987 20.795C9.89906 20.7724 9.83782 20.7108 9.78717 20.5976C9.49439 19.9438 9.05603 19.4412 8.69204 19.0817C8.31966 18.7139 7.89805 18.3744 7.52009 18.0807C7.33352 17.9357 7.15123 17.7965 6.97209 17.6598L6.97195 17.6597C6.36599 17.197 5.7961 16.7619 5.21827 16.2224C3.84787 14.9427 2.6875 13.2965 2.6875 10.5ZM19.75 10.5C19.75 15.5986 16.6507 17.9626 14.4564 19.6364C13.5035 20.3632 12.7213 20.9599 12.4375 21.5938C12.0317 22.5 11.1825 23.25 10 23.25C8.81752 23.25 7.96828 22.5 7.5625 21.5938C7.27867 20.9599 6.49646 20.3632 5.54364 19.6364C3.34926 17.9626 0.25 15.5986 0.25 10.5C0.25 5.11522 4.61522 0.75 10 0.75C15.3848 0.75 19.75 5.11522 19.75 10.5ZM12.25 10.5C12.25 11.7426 11.2426 12.75 10 12.75C8.75736 12.75 7.75 11.7426 7.75 10.5C7.75 9.25736 8.75736 8.25 10 8.25C11.2426 8.25 12.25 9.25736 12.25 10.5ZM14.5 10.5C14.5 12.9853 12.4853 15 10 15C7.51472 15 5.5 12.9853 5.5 10.5C5.5 8.01472 7.51472 6 10 6C12.4853 6 14.5 8.01472 14.5 10.5Z" fill="black"/>
</svg>
