<svg width="30" height="30" viewBox="0 0 30 30" fill="none" xmlns="http://www.w3.org/2000/svg">
<path d="M21.25 21.25C19.8693 21.25 18.75 22.3693 18.75 23.75C18.75 25.1307 19.8693 26.25 21.25 26.25C22.6307 26.25 23.75 25.1307 23.75 23.75C23.75 22.3693 22.6307 21.25 21.25 21.25ZM21.25 21.25H11.6174C11.0409 21.25 10.7525 21.25 10.5151 21.1475C10.3058 21.057 10.1242 20.911 9.99187 20.7253C9.84186 20.5147 9.78262 20.2328 9.66181 19.6691L6.58936 5.33096C6.46855 4.76719 6.40733 4.48532 6.25732 4.27475C6.12502 4.08903 5.94406 3.94302 5.73475 3.85256C5.49742 3.75 5.20974 3.75 4.63317 3.75H3.75M7.5 7.5H23.5915C24.4937 7.5 24.9446 7.5 25.2474 7.68795C25.5127 7.85258 25.7065 8.11047 25.7911 8.41095C25.8878 8.75399 25.7638 9.18745 25.5137 10.0543L23.783 16.0543C23.6334 16.5726 23.5587 16.8318 23.407 17.0242C23.2731 17.1939 23.0965 17.3259 22.8963 17.4075C22.6695 17.5 22.3998 17.5 21.8604 17.5H9.66309M10 26.25C8.61929 26.25 7.5 25.1307 7.5 23.75C7.5 22.3693 8.61929 21.25 10 21.25C11.3807 21.25 12.5 22.3693 12.5 23.75C12.5 25.1307 11.3807 26.25 10 26.25Z" stroke="black" stroke-width="2" stroke-linecap="round" stroke-linejoin="round"/>
</svg>
