<svg width="40" height="30" viewBox="0 0 40 30" fill="none" xmlns="http://www.w3.org/2000/svg">
<path d="M0 4.14286C0 2.45619 1.02824 1.79174 2.29298 1.7023L8.18162 1.74631C8.53701 1.74631 8.8532 2.01322 8.97208 2.41218C10.3165 7.2933 11.9758 10.3103 13.9526 13.7262C14.0715 13.9931 14.2688 14.1252 14.4661 14.1252C14.6242 14.1252 14.7823 14.0357 14.9012 13.8142L15.0201 13.3258L15.0593 5.65064C15.0593 4.54181 14.585 4.36434 13.4784 4.18687C13.0433 4.09743 12.7663 3.65446 12.7663 3.21008C12.7663 3.12063 12.7663 3.03261 12.8055 2.94316C13.3595 1.03501 15.0985 0.0596377 17.5483 0.0596377L19.7616 0.015625C21.5803 0.015625 23.2396 0.902973 23.2396 3.521V13.5928C23.3977 13.7262 23.5558 13.8142 23.7531 13.8142C24.0693 13.8142 24.4652 13.5928 24.7814 13.0149C26.8366 9.77645 29.1687 5.91613 29.4849 3.87452C29.4849 3.78508 29.5241 3.74107 29.5646 3.65304C29.9997 2.67625 31.1063 2.0118 31.5806 1.83433C31.6603 1.79032 31.7779 1.74489 31.936 1.74489H38.0624L38.4583 1.7889C39.0514 1.7889 39.4865 2.23329 39.6838 2.63224C40.0392 3.25409 39.9608 3.91854 40 4.18545V4.49638C39.4068 8.53417 35.2964 13.0589 33.5574 15.9879C33.3196 16.3428 33.202 16.6538 33.202 16.9647C33.202 17.2316 33.3209 17.4971 33.5182 17.764L39.2892 25.9276C39.6054 26.416 39.7635 26.9924 39.7635 27.4808C39.7635 28.9446 38.538 29.7879 37.3529 29.9214L36.6813 29.9654H30.6738C30.5549 29.9654 30.4765 30.0094 30.3576 30.0094C29.686 30.0094 29.1321 29.6105 28.7375 29.1661C27.4727 27.4354 26.2472 25.6607 25.0217 23.93C24.7839 23.5751 24.7055 23.5311 24.4677 23.3536C24.1907 24.6399 23.9542 25.9716 23.6772 27.3019L23.5584 28.0558C23.3611 28.8551 22.8463 29.6971 21.8977 29.92L21.3438 29.964H17.4699C10.6327 29.964 4.50628 19.0489 0.198564 5.42916C0.0796787 5.07422 0.00126474 4.58582 0.00126474 4.14286H0ZM23.7531 15.6344C22.7249 15.6344 21.579 14.9685 21.579 13.7262V3.521C21.579 2.32273 21.1048 1.87977 19.8008 1.87977L17.5483 1.96921C16.2836 1.96921 15.5715 2.19069 14.9796 2.63508C15.889 3.12347 16.7186 3.78934 16.7186 5.65206V13.4607C16.5997 15.0139 15.4539 16.0347 14.3472 16.0347C13.596 16.0347 12.9244 15.5463 12.5285 14.7484C10.7503 11.7315 9.2478 8.89195 7.94385 4.81014L7.58845 3.65588L2.33218 3.61187C1.62013 3.61187 1.69981 3.65588 1.69981 4.05625C1.69981 4.32317 1.73902 4.67811 1.77949 4.89959L2.60916 7.38416C6.91687 19.8965 12.3325 28.1041 17.4699 28.1041H21.4222C21.9762 28.1041 21.9357 27.3502 22.0546 26.9058L22.8058 23.0015C22.9639 22.6025 23.0828 22.2476 23.3598 21.9367C23.676 21.5817 24.0314 21.4483 24.388 21.4483C25.1393 21.4483 25.8501 22.1141 26.3243 22.7346L29.6835 27.5263C29.9605 28.0147 30.197 28.1027 30.3551 28.1027H36.8761C37.5085 28.1027 38.0624 27.8812 38.0624 27.4368C38.0624 27.3034 38.0232 27.1259 37.9435 26.9924L32.213 18.9623C31.7387 18.2964 31.5414 17.6305 31.5414 16.9661C31.5414 16.2562 31.7792 15.5463 32.1738 14.9245C33.8344 12.129 37.3908 8.13663 38.2205 4.85274L38.3394 4.27632C38.3002 4.05483 38.3002 3.87736 38.2597 3.65446H32.0549C31.659 3.83193 31.3428 4.09885 31.1063 4.45379L30.8686 5.29712C29.9592 8.13663 27.4689 12.041 25.6907 14.747C25.0975 15.3689 24.4247 15.6344 23.7531 15.6344Z" fill="black"/>
</svg>
