<svg width="35" height="30" viewBox="0 0 35 30" fill="none" xmlns="http://www.w3.org/2000/svg">
<path d="M32.1395 1.90634C31.1922 1.09436 28.5524 0.015625 17.4918 0.015625C5.63903 0.015625 3.87991 1.25441 3.31502 1.6604C0.311398 3.81007 0.026223 13.3235 0 15.2519C0.0360566 17.7998 0.381325 26.2774 3.31283 28.3737C3.87554 28.7784 5.62482 30.0094 17.4907 30.0094C28.559 30.0094 31.1955 28.9359 32.1384 28.1265C34.6984 25.9326 34.9924 18.3802 35 15.2181C34.9934 12.6755 34.7695 4.1627 32.1384 1.90634H32.1395ZM30.8633 26.0159C30.482 26.3425 28.2957 27.4069 17.4907 27.4069C7.04523 27.4069 4.85343 26.4414 4.43933 26.1434C3.38495 25.39 2.27156 21.3912 2.18525 15.2441C2.27156 9.11135 3.39915 4.63506 4.44261 3.88944C4.8578 3.59146 7.05725 2.61812 17.4918 2.61812C28.288 2.61812 30.4798 3.69035 30.8644 4.01827C31.8008 4.82114 32.8016 9.04759 32.8169 15.2259C32.8016 21.5018 31.7942 25.2169 30.8644 26.0146L30.8633 26.0159ZM24.6168 13.9884L14.7854 6.80294C14.4478 6.55961 14.026 6.5544 13.684 6.78472C13.3398 7.01634 13.1279 7.44966 13.1279 7.91811V22.2904C13.1279 22.7589 13.3398 23.1935 13.684 23.4238C13.8501 23.5357 14.0358 23.5917 14.2205 23.5917C14.415 23.5917 14.6117 23.5292 14.7843 23.4056L24.6157 16.2175C24.9435 15.9819 25.1434 15.559 25.1434 15.1036C25.1434 14.6482 24.9435 14.224 24.6157 13.9884H24.6168ZM15.3142 19.9859V10.2226L21.9388 15.1036L15.3142 19.9859Z" fill="black"/>
</svg>
