<svg width="84" height="58" viewBox="0 0 84 58" fill="none" xmlns="http://www.w3.org/2000/svg">
<path d="M61.4017 33.8365C58.7295 44.5566 47.8685 51.0731 37.1638 48.4008C26.4435 45.7286 19.9269 34.8679 22.5992 24.1635C25.2714 13.4434 36.1168 6.92695 46.8371 9.59915C57.5418 12.2557 64.074 23.1165 61.4017 33.8365Z" fill="url(#paint0_linear_428_3998)"/>
<path d="M51.5225 26.5078C51.9131 23.8516 49.8975 22.4141 47.1162 21.4609L48.0225 17.8516L45.835 17.3047L44.96 20.8203C44.3818 20.6797 43.7881 20.5391 43.1943 20.4141L44.0693 16.8828L41.8818 16.3359L40.9912 19.9297C40.5068 19.8203 40.0381 19.7109 39.585 19.6016V19.5859L36.5537 18.8359L35.9756 21.1797C35.9756 21.1797 37.6006 21.5547 37.5693 21.5703C38.46 21.7891 38.6162 22.3828 38.585 22.8516L37.5537 26.9609C37.6162 26.9766 37.6943 26.9922 37.7881 27.0391C37.71 27.0234 37.6318 27.0078 37.5537 26.9766L36.1162 32.7266C36.0068 32.9922 35.7256 33.3984 35.1162 33.2422C35.1318 33.2734 33.5225 32.8516 33.5225 32.8516L32.4287 35.3672L35.2881 36.0859C35.8193 36.2266 36.335 36.3516 36.8506 36.4922L35.9443 40.1328L38.1318 40.6797L39.0381 37.0703C39.6318 37.2266 40.2256 37.3828 40.7881 37.5234L39.8975 41.1172L42.085 41.6641L42.9912 38.0234C46.7412 38.7266 49.5537 38.4453 50.7256 35.0547C51.6787 32.3359 50.6787 30.7578 48.71 29.7266C50.1631 29.3984 51.2412 28.4453 51.5225 26.5078ZM46.5068 33.5391C45.835 36.2578 41.2412 34.7891 39.7568 34.4141L40.96 29.5859C42.4443 29.9609 47.2256 30.6953 46.5068 33.5391ZM47.1943 26.4609C46.5693 28.9453 42.7568 27.6797 41.5225 27.3672L42.6162 22.9922C43.8506 23.3047 47.835 23.8828 47.1943 26.4609Z" fill="white"/>
<defs>
<linearGradient id="paint0_linear_428_3998" x1="41.9893" y1="8.99058" x2="41.9893" y2="48.996" gradientUnits="userSpaceOnUse">
<stop stop-color="#F9AA4B"/>
<stop offset="1" stop-color="#F7931A"/>
</linearGradient>
</defs>
</svg>
