<svg width="84" height="58" viewBox="0 0 84 58" fill="none" xmlns="http://www.w3.org/2000/svg">
<path fill-rule="evenodd" clip-rule="evenodd" d="M13.6848 20.3173L13.6849 20.3173C14.3746 20.3055 16.0603 20.2768 16.7948 22.7582C17.3147 24.5147 18.1429 27.3918 19.2794 31.3897H19.7423C20.961 27.1749 21.7983 24.2977 22.254 22.7582C22.9872 20.2812 24.7544 20.3055 25.6114 20.3172C25.6659 20.318 25.7168 20.3187 25.7635 20.3187L31.7804 20.3187V39.0543H25.6478V28.0131H25.2365L21.8179 39.0543H17.2038L13.7851 28.0049H13.3739V39.0543H7.24121V20.3187L13.5876 20.3186C13.6173 20.3184 13.6498 20.3179 13.6848 20.3173ZM40.5869 20.3187V31.3681H41.0762L45.2347 22.2822C46.0419 20.4741 47.7624 20.3187 47.7624 20.3187H53.697V39.0543H47.4362V28.0049H46.947L42.87 37.0907C42.0628 38.8907 40.2608 39.0543 40.2608 39.0543H34.3262V20.3187H40.5869ZM68.6846 33.4733C71.7209 33.4733 74.4635 31.6992 75.3368 29.222H56.1653V39.0543H62.1189V33.4733H68.6846Z" fill="#40A548"/>
<path d="M68.9721 20.3184H55.8535C56.1657 24.4895 59.7543 28.0603 63.4692 28.0603H75.7509C76.4596 24.5936 74.0198 20.3184 68.9721 20.3184Z" fill="#1291D0"/>
</svg>
