<svg width="84" height="58" viewBox="0 0 84 58" fill="none" xmlns="http://www.w3.org/2000/svg">
<path fill-rule="evenodd" clip-rule="evenodd" d="M38.2901 29.3849L38.6558 27.0532L37.8412 27.0341H33.9512L36.6546 9.82684C36.663 9.77474 36.6902 9.72637 36.73 9.69196C36.77 9.65755 36.8209 9.63867 36.8742 9.63867H43.4333C45.611 9.63867 47.1138 10.0935 47.8982 10.9913C48.2661 11.4124 48.5004 11.8527 48.6138 12.337C48.7327 12.8452 48.7346 13.4524 48.6187 14.1931L48.6102 14.247V14.7216L48.9781 14.9308C49.2878 15.0958 49.534 15.2846 49.7228 15.5007C50.0374 15.8609 50.2409 16.3186 50.3269 16.8611C50.4158 17.4191 50.3864 18.0833 50.2409 18.8352C50.073 19.7 49.8017 20.4532 49.4353 21.0695C49.0984 21.6373 48.669 22.1084 48.1591 22.4734C47.6724 22.8202 47.0942 23.0835 46.4404 23.252C45.8067 23.4176 45.0843 23.5011 44.292 23.5011H43.7816C43.4167 23.5011 43.0622 23.6331 42.7838 23.8696C42.5047 24.1111 42.3202 24.441 42.2636 24.8018L42.225 25.0118L41.5788 29.1218L41.5496 29.2727C41.5418 29.3204 41.5285 29.3442 41.5089 29.3604C41.4915 29.3751 41.4664 29.3849 41.4419 29.3849H38.2901Z" fill="#28356A"/>
<path fill-rule="evenodd" clip-rule="evenodd" d="M49.3266 14.3018C49.3072 14.4274 49.2847 14.5558 49.2596 14.6877C48.3947 19.146 45.4352 20.6862 41.6557 20.6862H39.7312C39.269 20.6862 38.8794 21.023 38.8075 21.4807L37.5432 29.5315C37.4963 29.8322 37.7271 30.1029 38.0291 30.1029H41.4424C41.8465 30.1029 42.1898 29.8082 42.2535 29.4081L42.287 29.234L42.9296 25.1401L42.971 24.9156C43.0338 24.5141 43.378 24.2191 43.7821 24.2191H44.2925C47.5994 24.2191 50.1883 22.8715 50.9449 18.9712C51.2609 17.342 51.0973 15.9815 50.2609 15.0247C50.0079 14.7363 49.6939 14.4968 49.3266 14.3018Z" fill="#298FC2"/>
<path fill-rule="evenodd" clip-rule="evenodd" d="M48.422 13.9396C48.2898 13.9008 48.1535 13.8658 48.0136 13.8342C47.873 13.8033 47.729 13.776 47.5807 13.752C47.0619 13.6678 46.4932 13.6279 45.8843 13.6279H40.7432C40.6165 13.6279 40.4962 13.6566 40.3887 13.7085C40.1515 13.823 39.9754 14.0483 39.9327 14.3242L38.839 21.278L38.8076 21.4807C38.8795 21.023 39.2691 20.6862 39.7314 20.6862H41.6558C45.4353 20.6862 48.3948 19.1452 49.2597 14.6877C49.2856 14.5558 49.3073 14.4274 49.3267 14.3018C49.1079 14.1852 48.8709 14.0855 48.6157 14.0005C48.5526 13.9795 48.4876 13.9592 48.422 13.9396Z" fill="#22284F"/>
<path fill-rule="evenodd" clip-rule="evenodd" d="M39.9328 14.3244C39.9755 14.0485 40.1516 13.8232 40.3888 13.7095C40.4971 13.6574 40.6166 13.6287 40.7433 13.6287H45.8844C46.4934 13.6287 47.062 13.6688 47.5808 13.753C47.7291 13.7768 47.8731 13.8043 48.0137 13.8352C48.1536 13.8666 48.2899 13.9018 48.4221 13.9403C48.4877 13.96 48.5528 13.9805 48.6164 14.0007C48.8716 14.0857 49.1088 14.1861 49.3276 14.3019C49.585 12.6544 49.3255 11.5327 48.4382 10.5169C47.4598 9.39851 45.6942 8.91992 43.4348 8.91992H36.8755C36.414 8.91992 36.0203 9.25674 35.949 9.71527L33.217 27.0995C33.1631 27.4434 33.4273 27.7536 33.7728 27.7536H37.8223L39.9328 14.3244Z" fill="#28356A"/>
<path fill-rule="evenodd" clip-rule="evenodd" d="M18.9644 34.1172H14.1819C13.8546 34.1172 13.5763 34.3559 13.5252 34.6803L11.5909 46.9906C11.5525 47.2336 11.74 47.4525 11.9854 47.4525H14.2685C14.5958 47.4525 14.8741 47.214 14.9253 46.889L15.4469 43.5686C15.4972 43.2435 15.7761 43.0048 16.1029 43.0048H17.6168C20.767 43.0048 22.585 41.4745 23.06 38.4421C23.2739 37.1153 23.069 36.073 22.4501 35.3429C21.7704 34.5413 20.5648 34.1172 18.9644 34.1172ZM19.5158 38.6138C19.2543 40.3368 17.9431 40.3368 16.6755 40.3368H15.9537L16.46 37.1189C16.4902 36.9244 16.6578 36.7813 16.8537 36.7813H17.1845C18.0481 36.7813 18.8628 36.7813 19.2837 37.2755C19.5348 37.5703 19.6116 38.0085 19.5158 38.6138Z" fill="#28356A"/>
<path fill-rule="evenodd" clip-rule="evenodd" d="M33.3817 38.4653H31.0915C30.8964 38.4653 30.7278 38.6085 30.6978 38.8029L30.5964 39.4459L30.4363 39.2129C29.9406 38.4905 28.8349 38.249 27.7315 38.249C25.2007 38.249 23.0392 40.1732 22.6183 42.8723C22.3995 44.2186 22.7105 45.5061 23.4715 46.4038C24.1694 47.2293 25.168 47.5734 26.3559 47.5734C28.3951 47.5734 29.5257 46.2572 29.5257 46.2572L29.4237 46.896C29.3853 47.1402 29.5727 47.3593 29.8168 47.3593H31.8795C32.2076 47.3593 32.4846 47.1205 32.5363 46.7955L33.774 38.9272C33.8132 38.6849 33.6263 38.4653 33.3817 38.4653ZM30.1893 42.9402C29.9684 44.2537 28.93 45.1356 27.6056 45.1356C26.9406 45.1356 26.4092 44.9214 26.0678 44.5157C25.7293 44.1127 25.6008 43.539 25.7083 42.9001C25.9148 41.5977 26.9705 40.687 28.2749 40.687C28.9252 40.687 29.4538 40.9041 29.8021 41.3132C30.1509 41.7268 30.2894 42.304 30.1893 42.9402Z" fill="#28356A"/>
<path fill-rule="evenodd" clip-rule="evenodd" d="M45.4026 38.6621H43.1011C42.8815 38.6621 42.6753 38.7716 42.5509 38.9549L39.3768 43.6481L38.0314 39.1379C37.9467 38.8558 37.6874 38.6621 37.3936 38.6621H35.1322C34.8572 38.6621 34.6665 38.9317 34.7538 39.1914L37.2888 46.6588L34.9056 50.0361C34.7182 50.3021 34.907 50.6678 35.2308 50.6678H37.5293C37.7475 50.6678 37.9516 50.5611 38.0754 50.3815L45.7297 39.2903C45.9131 39.0251 45.7248 38.6621 45.4026 38.6621Z" fill="#28356A"/>
<path fill-rule="evenodd" clip-rule="evenodd" d="M53.0745 34.1172H48.2915C47.965 34.1172 47.6867 34.3559 47.6355 34.6803L45.7013 46.9906C45.6629 47.2336 45.8504 47.4525 46.0944 47.4525H48.5489C48.7767 47.4525 48.9718 47.2856 49.0074 47.0581L49.5564 43.5686C49.6068 43.2435 49.8859 43.0048 50.2124 43.0048H51.7257C54.8765 43.0048 56.694 41.4745 57.1696 38.4421C57.3843 37.1153 57.178 36.073 56.5591 35.3429C55.88 34.5413 54.6752 34.1172 53.0745 34.1172ZM53.6264 38.6138C53.3655 40.3368 52.0543 40.3368 50.7858 40.3368H50.065L50.5719 37.1189C50.6019 36.9244 50.7684 36.7813 50.9648 36.7813H51.2957C52.1585 36.7813 52.9739 36.7813 53.3948 37.2755C53.6459 37.5703 53.7221 38.0085 53.6264 38.6138Z" fill="#298FC2"/>
<path fill-rule="evenodd" clip-rule="evenodd" d="M67.4899 38.4653H65.2011C65.0047 38.4653 64.8376 38.6085 64.8082 38.8029L64.7068 39.4459L64.5459 39.2129C64.0502 38.4905 62.9453 38.249 61.8417 38.249C59.3111 38.249 57.1504 40.1732 56.7295 42.8723C56.5113 44.2186 56.8209 45.5061 57.5817 46.4038C58.2812 47.2293 59.2782 47.5734 60.4663 47.5734C62.5053 47.5734 63.6361 46.2572 63.6361 46.2572L63.5341 46.896C63.4957 47.1402 63.6829 47.3593 63.9286 47.3593H65.9907C66.3172 47.3593 66.5956 47.1205 66.6467 46.7955L67.885 38.9272C67.9228 38.6849 67.7353 38.4653 67.4899 38.4653ZM64.2976 42.9402C64.0781 44.2537 63.0382 45.1356 61.7137 45.1356C61.0501 45.1356 60.5173 44.9214 60.1759 44.5157C59.8376 44.1127 59.7103 43.539 59.8165 42.9001C60.0243 41.5977 61.0787 40.687 62.383 40.687C63.0333 40.687 63.562 40.9041 63.9102 41.3132C64.2604 41.7268 64.3989 42.304 64.2976 42.9402Z" fill="#298FC2"/>
<path fill-rule="evenodd" clip-rule="evenodd" d="M69.9991 34.4556L68.0363 46.9912C67.9979 47.2342 68.1851 47.4531 68.4292 47.4531H70.4026C70.7307 47.4531 71.0088 47.2146 71.0592 46.8896L72.9948 34.5798C73.0334 34.3368 72.8459 34.1172 72.6018 34.1172H70.3922C70.1971 34.1178 70.0293 34.2611 69.9991 34.4556Z" fill="#298FC2"/>
</svg>
