<svg width="84" height="58" viewBox="0 0 84 58" fill="none" xmlns="http://www.w3.org/2000/svg">
<path fill-rule="evenodd" clip-rule="evenodd" d="M28.9235 40.7566C29.3665 40.5266 30.1196 40.2246 30.9173 40.2246C32.7484 40.2246 33.7381 41.4608 33.7381 43.7611C33.7381 46.4482 32.4093 47.7564 30.2677 47.7564C29.4846 47.7564 28.2736 47.5121 27.3873 47.0514V37.0196L28.9235 36.6602V40.7566ZM28.909 46.5199C29.3812 46.7212 29.8984 46.7497 30.2678 46.7497C31.3607 46.7497 32.1877 46.0888 32.1877 43.761C32.1877 41.9351 31.5083 41.3459 30.5188 41.3459C29.9277 41.3459 29.4998 41.504 28.909 41.8202V46.5199ZM13.1785 40.4113H13.2819L15.2901 47.5839H16.8851L19.278 37.3929H17.5498L16.0434 44.9966H15.9405L13.8872 37.3929H12.5728L10.6529 44.9966H10.5494L8.89519 37.3929H7.24121L9.63389 47.5839H11.2286L13.1785 40.4113ZM25.8226 47.0947V46.0024C25.0103 46.4767 24.2721 46.7497 23.4746 46.7497C21.9533 46.7497 21.2298 45.9876 21.2298 44.2631H26.0441V43.7316C26.0441 41.3891 24.9068 40.2246 23.0611 40.2246C20.8458 40.2246 19.7085 41.8057 19.7085 43.9901C19.7085 46.2614 20.7275 47.7564 23.2084 47.7564C24.2721 47.7564 25.1581 47.4689 25.8226 47.0947ZM24.6411 43.3011H21.2597C21.4216 41.8638 22.1154 41.188 23.0169 41.188C23.8143 41.188 24.5679 41.7913 24.6411 43.3011ZM40.5321 45.4278H40.458L37.1497 37.3929H35.3628V47.5839H36.6921V40.3686H36.8248L39.8381 47.5839H40.7829L43.796 40.196H43.9292V47.5839H45.5241V37.3929H43.6925L40.5321 45.4278ZM47.149 43.9901C47.149 41.4748 48.5668 40.2246 50.5162 40.2246C52.4659 40.2246 53.884 41.4748 53.884 43.9901C53.884 46.4482 52.5398 47.7564 50.5162 47.7564C48.4926 47.7564 47.149 46.4482 47.149 43.9901ZM52.3328 43.9903C52.3328 42.0502 51.5202 41.2312 50.5161 41.2312C49.5413 41.2312 48.6994 42.0502 48.6994 43.9903C48.6994 45.9601 49.4679 46.7499 50.5161 46.7499C51.5646 46.7499 52.3328 45.9601 52.3328 43.9903ZM59.0519 40.2246C57.3543 40.2246 55.9509 40.9 55.2864 41.2882V47.5838H56.8225V41.8919C57.2802 41.6336 58.0335 41.3743 58.6246 41.3743C59.3777 41.3743 59.9531 41.5757 59.9531 42.7112V47.5838H61.489V42.3802C61.489 40.9 60.825 40.2246 59.0519 40.2246ZM68.9767 46.0024V47.0947C68.3124 47.4689 67.4266 47.7564 66.3627 47.7564C63.882 47.7564 62.8628 46.2614 62.8628 43.9901C62.8628 41.8057 64.0004 40.2246 66.2154 40.2246C68.0619 40.2246 69.1995 41.3891 69.1995 43.7316V44.2631H64.3846C64.3846 45.9876 65.1081 46.7497 66.6292 46.7497C67.4266 46.7497 68.1651 46.4767 68.9767 46.0024ZM64.414 43.3011H67.7959C67.7225 41.7913 66.9686 41.188 66.1712 41.188C65.27 41.188 64.5767 41.8638 64.414 43.3011ZM76.5247 40.4689H74.9444L73.2601 45.7578H73.1721L71.2817 40.4689H69.657L72.4927 47.6554C72.1377 48.7188 71.5181 49.4956 70.5137 49.4956V50.6736C72.2113 50.6736 73.1125 49.6392 73.8512 47.6554L76.5247 40.4689Z" fill="#0068A3"/>
<path fill-rule="evenodd" clip-rule="evenodd" d="M40.8925 7.2666C42.9249 7.2666 44.8498 7.72722 46.5641 8.54499C46.8334 8.66929 47.1019 8.80605 47.3712 8.95705L46.1796 9.99496L44.3893 8.19342L41.3676 10.8163L39.5728 8.91002L33.944 13.8477L37.5526 17.7179L36.1345 18.9317L39.6888 22.8078L38.2791 24.0188L43.358 29.5205L46.3729 26.8194L48.9795 29.714C48.461 30.1062 47.8963 30.4753 47.2741 30.8164C45.3892 31.8625 43.2107 32.4614 40.8925 32.4614C33.763 32.4614 27.9482 26.8018 27.9482 19.8644C27.9482 12.9254 33.763 7.2666 40.8925 7.2666ZM38.5334 19.068L41.6115 16.3704L44.3832 19.3666L41.3053 22.0632L38.5334 19.068ZM43.8006 21.5472L40.7223 24.244L43.4945 27.2403L46.5726 24.5427L43.8006 21.5472ZM36.331 13.9524L39.4091 11.2555L42.18 14.2511L39.1019 16.9479L36.331 13.9524ZM44.2881 10.4782L41.9795 12.5011L44.0579 14.7489L46.3665 12.7253L44.2881 10.4782ZM46.0812 21.7665L48.3906 19.7429L50.469 21.9905L48.1604 24.0136L46.0812 21.7665ZM50.4202 24.2806L48.1121 26.3045L50.1906 28.5508L52.4991 26.5277L50.4202 24.2806ZM49.0418 15.9037L50.5809 14.5548L51.9663 16.0529L50.4281 17.4015L49.0418 15.9037ZM48.6146 10.1048L47.0756 11.4533L48.461 12.9514L50.0003 11.6028L48.6146 10.1048ZM51.0094 20.3537L52.5485 19.0049L53.9342 20.5027L52.3951 21.8516L51.0094 20.3537ZM46.4156 14.9954L44.1073 17.0192L46.1863 19.2656L48.494 17.2425L46.4156 14.9954Z" fill="#0068A3"/>
</svg>
