<svg width="84" height="58" viewBox="0 0 84 58" fill="none" xmlns="http://www.w3.org/2000/svg">
<path d="M39.415 36.4306H42.1454V31.3435H45.0303C48.5114 31.3435 50.3807 29.2557 50.3807 26.3592C50.3807 23.4848 48.5335 21.375 45.0671 21.375H39.415V36.4306ZM42.1454 29.1013V23.6539H44.6476C46.6936 23.6539 47.5988 24.7566 47.5988 26.3592C47.5988 27.9618 46.6936 29.1013 44.6624 29.1013H42.1454Z" fill="black"/>
<path d="M53.008 36.4306L54.2518 32.7182H59.9186L61.1697 36.4306H64.0841L58.7705 21.375H55.3999L50.0937 36.4306H53.008ZM54.9877 30.5275L57.0263 24.4626H57.1441L59.1827 30.5275H54.9877Z" fill="black"/>
<path d="M63.5008 21.375L68.9837 30.8142V36.4306H71.7067V30.8142L77.1895 21.375H74.1059L70.4188 28.0353H70.2716L66.5845 21.375H63.5008Z" fill="black"/>
<ellipse cx="19.8255" cy="28.8394" rx="12.8255" ry="12.8228" fill="#FC3F1D"/>
<path d="M24.8182 36.3757H22.1758V23.2801H20.9958C18.8353 23.2801 17.7052 24.3617 17.7052 25.9758C17.7052 27.8062 18.4863 28.6548 20.0984 29.7364L21.4279 30.6349L17.6055 36.3757H14.7637L18.2038 31.2506C16.2262 29.8362 15.1127 28.4551 15.1127 26.1255C15.1127 23.2135 17.1402 21.2334 20.9792 21.2334H24.8016V36.3757H24.8182Z" fill="white"/>
</svg>
